# xmcd
#
# Track frame offsets: 
#        150
#        20132
#        36162
#        50475
#        68900
#        86517
#        119877
#        135780
#        153317
#        165972
#        183060
#        207555
#
# Disc length: 3114 seconds
#
# Revision: 5
# Processed by: cddbd v1.5.2PL0 Copyright (c) Steve Scherf et al.
# Submitted via: ExactAudioCopy v0.99pb5
#
DISCID=9e0c280c
DTITLE=Far - Tin Cans With Strings To You
DYEAR=1996
DGENRE=Rock
TTITLE0=What I've Wanted To Say
TTITLE1=Love, American Style
TTITLE2=In The Aisle, Yelling
TTITLE3=Girl
TTITLE4=Seasick
TTITLE5=Job's Eyes
TTITLE6=Punchdrunk
TTITLE7=Celebrate Her
TTITLE8=Boring Life
TTITLE9=Joining The Circus
TTITLE10=Cut-Out
TTITLE11=Sorrow's End
EXTD=YEAR: 1996 ID3G: 17
EXTT0=
EXTT1=
EXTT2=
EXTT3=
EXTT4=
EXTT5=
EXTT6=
EXTT7=
EXTT8=
EXTT9=
EXTT10=
EXTT11=
PLAYORDER=
